<svg width="50" height="50" viewBox="0 0 50 50" fill="none" xmlns="http://www.w3.org/2000/svg">
<path d="M4.53516 34.44H15.3857V46.2197H4.53516V34.44Z" fill="#FFF7E9"/>
<path d="M21.8423 29.8775H32.6928V46.2195H21.8423V29.8775Z" fill="#FFF7E9"/>
<path d="M39.1494 23.7047H49.9999V46.2182H39.1494V23.7047Z" fill="#FFF7E9"/>
<path d="M42.8567 17.3338C43.9932 16.2595 44.961 15.1067 45.7956 13.8937L48.7786 15.5111L48.5704 7.45669L41.6821 11.6637L44.5265 13.2057C43.7658 14.293 42.8921 15.3284 41.8698 16.2939C33.0314 24.6474 16.4803 26.9009 3.9335 26.227L3.85693 27.6553C5.23805 27.7297 6.66632 27.7696 8.12853 27.7696C20.2627 27.7706 34.6736 25.0678 42.857 17.3339L42.8567 17.3338Z" fill="#FFF7E9"/>
<path d="M0 0H1.27406V4.59982H0V0Z" fill="#FFF7E9"/>
<path d="M0 6.85027H1.27406V11.4501H0V6.85027Z" fill="#FFF7E9"/>
<path d="M0 13.6991H1.27406V18.299H0V13.6991Z" fill="#FFF7E9"/>
<path d="M0 20.5506H1.27406V25.1494H0V20.5506Z" fill="#FFF7E9"/>
<path d="M0 27.4007H1.27406V31.9995H0V27.4007Z" fill="#FFF7E9"/>
<path d="M0 34.2522H1.27406V38.8509H0V34.2522Z" fill="#FFF7E9"/>
<path d="M0 41.101H1.27406V45.6998H0V41.101Z" fill="#FFF7E9"/>
<path d="M45.2065 48.7295H50V50H45.2065V48.7295Z" fill="#FFF7E9"/>
<path d="M38.0669 48.7295H42.8604V50H38.0669V48.7295Z" fill="#FFF7E9"/>
<path d="M30.9287 48.7295H35.7232V50H30.9287V48.7295Z" fill="#FFF7E9"/>
<path d="M23.7896 48.7295H28.5815V50H23.7896V48.7295Z" fill="#FFF7E9"/>
<path d="M16.6499 48.7295H21.4434V50H16.6499V48.7295Z" fill="#FFF7E9"/>
<path d="M9.51074 48.7295H14.3042V50H9.51074V48.7295Z" fill="#FFF7E9"/>
<path d="M2.37256 48.7295H7.16555V50H2.37256V48.7295Z" fill="#FFF7E9"/>
</svg>
