<svg width="50" height="50" viewBox="0 0 50 50" fill="none" xmlns="http://www.w3.org/2000/svg">
<path d="M0.867091 47.2859H11.0305C11.5114 47.2859 11.897 46.8866 11.897 46.3896L11.8974 32.222C11.8974 31.7305 11.5114 31.3256 11.0309 31.3256H0.866486C0.385575 31.3256 0 31.7309 0 32.222V46.3896C0 46.887 0.385962 47.2859 0.866486 47.2859H0.867091Z" fill="#FFF7E9"/>
<path d="M24.2168 49.2952C27.2204 50.4216 30.4384 50.1923 33.294 48.6474L48.9017 39.9468C49.7973 39.4574 50.1717 38.3049 49.9267 37.3597C49.8213 36.9532 49.6217 36.6085 49.3582 36.3287C48.4739 35.3895 46.8704 35.181 45.6978 35.8312C45.6951 35.8328 36.4816 40.9389 36.4816 40.9389C35.9115 42.3354 34.6649 43.2995 33.2222 43.2995H24.3179C23.9083 43.2995 23.5758 42.9283 23.5758 42.4565C23.5758 41.9911 23.9079 41.6135 24.3179 41.6135H33.2226C34.3921 41.6135 35.452 40.5108 35.5098 39.1831C35.5791 37.5957 34.3921 36.3955 33.2226 36.3955H26.8589C26.7578 36.3955 26.669 36.3687 26.5857 36.3346C26.5679 36.3278 26.5562 36.3214 26.538 36.3146C26.5264 36.3078 26.514 36.3013 26.4962 36.2945L24.0858 34.831C22.3227 33.7655 20.3397 33.2051 18.3456 33.2051H13.3823L13.4362 45.2413L24.2168 49.2952Z" fill="#FFF7E9"/>
<path d="M33.7067 32.6832C39.3622 31.7035 44.013 27.6512 46.014 22.2437H39.7037C38.671 26.1853 36.6199 29.781 33.7065 32.6832H33.7067Z" fill="#FFF7E9"/>
<path d="M30.1519 32.6862V22.2427H24.2261C25.2732 25.9117 27.3103 30.0413 30.1519 32.6862Z" fill="#FFF7E9"/>
<path d="M37.8594 22.2427H31.9336V32.6791C34.7753 30.0419 36.805 25.9123 37.8594 22.2427Z" fill="#FFF7E9"/>
<path d="M16.0723 22.2427C18.0734 27.6434 22.7244 31.6953 28.3795 32.6821C25.4595 29.7796 23.4081 26.1839 22.3823 22.2427H16.0723Z" fill="#FFF7E9"/>
<path d="M21.9757 20.4007C21.7409 19.0742 21.6196 17.7185 21.6196 16.3412C21.6196 14.9707 21.7409 13.615 21.9757 12.2894H15.5088C15.1953 13.5857 15.0244 14.9414 15.0244 16.3412C15.0244 17.7409 15.1957 19.1043 15.5088 20.4007H21.9757Z" fill="#FFF7E9"/>
<path d="M30.1519 12.2897H23.7917C23.5351 13.6085 23.3999 14.9641 23.3999 16.3415C23.3999 17.7188 23.5355 19.0745 23.7917 20.401H30.1519V12.2897Z" fill="#FFF7E9"/>
<path d="M38.6856 16.3411C38.6856 14.9637 38.5434 13.608 38.2939 12.2893H31.9336V20.4006H38.2939C38.5434 19.0741 38.6856 17.7184 38.6856 16.3411Z" fill="#FFF7E9"/>
<path d="M40.4655 16.3411C40.4655 17.7184 40.3442 19.0741 40.1094 20.4006H46.5766C46.8971 19.1042 47.0683 17.7409 47.0683 16.3411C47.0683 14.9412 46.897 13.5855 46.5766 12.2893H40.1094C40.3442 13.6149 40.4655 14.9706 40.4655 16.3411Z" fill="#FFF7E9"/>
<path d="M46.0138 10.4477C44.0122 5.04014 39.3617 0.987402 33.7065 0C36.6199 2.91018 38.671 6.50585 39.7037 10.4477H46.0138Z" fill="#FFF7E9"/>
<path d="M32.0675 0.011076L31.9326 10.4474H37.8585C36.804 6.77881 34.9092 2.64962 32.0675 0.011076Z" fill="#FFF7E9"/>
<path d="M30.1521 10.4475L30.2869 0.00395966C27.4452 2.64158 25.2733 6.77888 24.2266 10.4475H30.1521Z" fill="#FFF7E9"/>
<path d="M28.3795 0.00790215C22.7241 0.987597 18.0732 5.03983 16.0723 10.4473H22.3825C23.4083 6.50575 25.4594 2.91007 28.3797 0.00790215H28.3795Z" fill="#FFF7E9"/>
</svg>
