<svg width="50" height="41" viewBox="0 0 50 41" fill="none" xmlns="http://www.w3.org/2000/svg">
<path d="M27.0752 26.2061C27.0752 26.6414 26.7254 26.9943 26.2939 26.9943C25.8625 26.9943 25.5127 26.6414 25.5127 26.2061C25.5127 25.7709 25.8625 25.418 26.2939 25.418C26.7254 25.418 27.0752 25.7709 27.0752 26.2061Z" fill="#FFF7E9"/>
<path d="M17.8475 21.6736H28.0037L28.3155 20.0973H17.5352L17.8475 21.6736Z" fill="#FFF7E9"/>
<path d="M20.8252 26.2061C20.8252 26.6414 20.4754 26.9943 20.0439 26.9943C19.6125 26.9943 19.2627 26.6414 19.2627 26.2061C19.2627 25.7709 19.6125 25.418 20.0439 25.418C20.4754 25.418 20.8252 25.7709 20.8252 26.2061Z" fill="#FFF7E9"/>
<path d="M16.5963 15.3684H29.2534L29.5659 13.7921H16.2847L16.5963 15.3684Z" fill="#FFF7E9"/>
<path d="M12.1089 0C11.4874 0.000703659 10.8917 0.250163 10.4522 0.693147C10.0131 1.13648 9.76583 1.73747 9.76514 2.36447V29.1615C9.76583 29.7885 10.0131 30.3895 10.4522 30.8328C10.8917 31.2758 11.4874 31.5253 12.1089 31.526H37.8901C38.5116 31.5253 39.1074 31.2758 39.5468 30.8328C39.9859 30.3895 40.2332 29.7885 40.2339 29.1615V2.36447C40.2332 1.73747 39.9859 1.13649 39.5468 0.693147C39.1074 0.250163 38.5116 0.000702578 37.8901 0H12.1089ZM20.0435 28.5706C19.4219 28.5706 18.8255 28.3215 18.3861 27.8782C17.9467 27.4348 17.6997 26.8331 17.6997 26.2062C17.6997 25.5793 17.9467 24.9775 18.3861 24.5342C18.8256 24.0909 19.422 23.8418 20.0435 23.8418C20.665 23.8418 21.2614 24.0909 21.7008 24.5342C22.1402 24.9776 22.3872 25.5793 22.3872 26.2062C22.3865 26.8332 22.1392 27.4342 21.7001 27.8775C21.2606 28.3205 20.6649 28.57 20.0434 28.5707L20.0435 28.5706ZM26.2934 28.5706C25.6719 28.5706 25.0755 28.3215 24.6361 27.8782C24.1967 27.4348 23.9497 26.8331 23.9497 26.2062C23.9497 25.5793 24.1967 24.9775 24.6361 24.5342C25.0756 24.0909 25.672 23.8418 26.2934 23.8418C26.915 23.8418 27.5114 24.0909 27.9508 24.5342C28.3902 24.9776 28.6371 25.5793 28.6371 26.2062C28.6364 26.8332 28.3892 27.4342 27.9501 27.8775C27.5106 28.3205 26.9149 28.57 26.2934 28.5707L26.2934 28.5706ZM34.4508 10.8557L32.4608 11.0309C32.4353 11.0331 32.4102 11.0345 32.3844 11.0345V11.0341C32.0286 11.0292 31.7203 11.2818 31.6523 11.6344L29.5345 21.983C29.4637 22.3401 29.2723 22.6617 28.9929 22.8929C28.7135 23.1237 28.3637 23.25 28.0024 23.25H17.8461C17.4848 23.25 17.135 23.1237 16.8556 22.8929C16.5762 22.6618 16.3848 22.3402 16.314 21.983L14.7515 14.1015C14.6597 13.6385 14.7787 13.1582 15.0751 12.793C15.3719 12.4278 15.8156 12.216 16.2836 12.216H29.9398L30.1128 11.3937C30.2262 10.886 30.5101 10.4331 30.9164 10.1126C31.3224 9.79168 31.826 9.62244 32.3418 9.63335L34.2977 9.46129C34.704 9.40394 35.0818 9.68225 35.1515 10.0897C35.1616 10.2857 35.0929 10.4774 34.9611 10.6217C34.8289 10.766 34.6447 10.85 34.4505 10.8553L34.4508 10.8557ZM38.6714 2.36444V6.30519H11.3277V2.36444C11.3277 1.92921 11.6775 1.5763 12.1089 1.5763H37.8901C38.0973 1.5763 38.2961 1.65933 38.4426 1.80711C38.5891 1.95489 38.6714 2.15545 38.6714 2.36444Z" fill="#FFF7E9"/>
<path d="M17.2223 18.521H28.6276L28.9408 16.9447H16.9087L17.2223 18.521Z" fill="#FFF7E9"/>
<path d="M36.3286 3.15259H34.7661C34.3347 3.15259 33.9849 3.5055 33.9849 3.94074C33.9849 4.37597 34.3347 4.72888 34.7661 4.72888H36.3286C36.76 4.72888 37.1099 4.37597 37.1099 3.94074C37.1099 3.5055 36.76 3.15259 36.3286 3.15259Z" fill="#FFF7E9"/>
<path d="M31.6411 3.15259H30.0786C29.6472 3.15259 29.2974 3.5055 29.2974 3.94074C29.2974 4.37597 29.6472 4.72888 30.0786 4.72888H31.6411C32.0725 4.72888 32.4224 4.37597 32.4224 3.94074C32.4224 3.5055 32.0725 3.15259 31.6411 3.15259Z" fill="#FFF7E9"/>
<path d="M0.107476 39.9812C0.221869 40.2767 0.422065 40.5304 0.681555 40.7092C0.941046 40.8879 1.24831 40.9836 1.56255 40.9836H48.4375C48.8658 40.9836 49.2752 40.8063 49.5703 40.4931C49.8654 40.18 50.0199 39.7581 49.9979 39.3268C49.976 38.895 49.7796 38.4918 49.4546 38.2107L44.36 33.8055C44.4713 33.5877 44.5299 33.347 44.5313 33.1021V12.2158C44.5306 11.5888 44.2833 10.9878 43.8442 10.5444C43.4047 10.1015 42.809 9.85199 42.1875 9.85129H41.7969V11.4276H42.1875C42.3947 11.4276 42.5935 11.5106 42.7399 11.6584C42.8864 11.8062 42.9687 12.0067 42.9687 12.2157V33.1021H7.03129V12.2157C7.03129 11.7805 7.38111 11.4276 7.81254 11.4276H8.20316V9.85129H7.81254C7.19103 9.85199 6.59531 10.1015 6.15584 10.5444C5.71674 10.9878 5.46946 11.5888 5.46876 12.2158V33.1021C5.47086 33.2562 5.49562 33.4093 5.54235 33.556L0.502629 38.2491C0.271746 38.4641 0.110612 38.7445 0.0398085 39.0538C-0.0306432 39.3627 -0.00726905 39.686 0.107476 39.9812Z" fill="#FFF7E9"/>
</svg>
